<svg width="30.462" height="30.461" xmlns="http://www.w3.org/2000/svg">

 <g>
  <title>background</title>
  <rect fill="none" id="canvas_background" height="402" width="582" y="-1" x="-1"/>
 </g>
 <g>
  <title>Layer 1</title>
  <g id="svg_1">
   <path fill="#55eb7f" id="svg_2" d="m16.109,13.997l-4.312,-4.479l-10.371,10.54l-1.426,-1.402l11.812,-12.005l4.354,4.522l7.49,-7.172l-2.146,-2.145l5.603,0l0,5.601l-2.043,-2.042l-8.961,8.582zm-11.147,14.609l6.75,0l0,-9.5l-6.75,0l0,9.5zm9.375,0l6.75,0l0,-12.5l-6.75,0l0,12.5zm9.375,-18.75l0,18.75l6.75,0l0,-18.75l-6.75,0z"/>
  </g>
  <g id="svg_3"/>
  <g id="svg_4"/>
  <g id="svg_5"/>
  <g id="svg_6"/>
  <g id="svg_7"/>
  <g id="svg_8"/>
  <g id="svg_9"/>
  <g id="svg_10"/>
  <g id="svg_11"/>
  <g id="svg_12"/>
  <g id="svg_13"/>
  <g id="svg_14"/>
  <g id="svg_15"/>
  <g id="svg_16"/>
  <g id="svg_17"/>
 </g>
</svg>