<svg width="284.929" height="284.929" xmlns="http://www.w3.org/2000/svg">

 <g>
  <title>background</title>
  <rect fill="none" id="canvas_background" height="402" width="582" y="-1" x="-1"/>
 </g>
 <g>
  <title>Layer 1</title>
  <g transform="rotate(180 142.46400451660156,142.46449279785156) " id="svg_1">
   <path fill="#ff0000" id="svg_2" d="m282.082,195.285l-133.054,-133.045c-1.901,-1.903 -4.088,-2.856 -6.562,-2.856s-4.665,0.953 -6.567,2.856l-133.043,133.045c-1.906,1.906 -2.856,4.093 -2.856,6.568c0,2.474 0.953,4.664 2.856,6.566l14.272,14.271c1.903,1.903 4.093,2.854 6.567,2.854c2.474,0 4.664,-0.951 6.567,-2.854l112.204,-112.202l112.208,112.209c1.902,1.903 4.093,2.848 6.563,2.848c2.478,0 4.668,-0.951 6.57,-2.848l14.274,-14.277c1.902,-1.902 2.847,-4.093 2.847,-6.566c0.001,-2.476 -0.944,-4.666 -2.846,-6.569z"/>
  </g>
  <g id="svg_3"/>
  <g id="svg_4"/>
  <g id="svg_5"/>
  <g id="svg_6"/>
  <g id="svg_7"/>
  <g id="svg_8"/>
  <g id="svg_9"/>
  <g id="svg_10"/>
  <g id="svg_11"/>
  <g id="svg_12"/>
  <g id="svg_13"/>
  <g id="svg_14"/>
  <g id="svg_15"/>
  <g id="svg_16"/>
  <g transform="rotate(-180 0,0) " id="svg_17"/>
 </g>
</svg>